<?xml version="1.0" encoding="UTF-8" standalone="no"?><!-- Generator: Gravit.io --><svg xmlns="http://www.w3.org/2000/svg" xmlns:xlink="http://www.w3.org/1999/xlink" style="isolation:isolate" viewBox="751 -0.92 1008 1354.839" width="1008pt" height="1354.839pt"><defs><clipPath id="_clipPath_LPpmmltfgaELxXZ3v9qHEvOf2JHE30M0"><rect x="751" y="-0.92" width="1008" height="1354.839"/></clipPath></defs><g clip-path="url(#_clipPath_LPpmmltfgaELxXZ3v9qHEvOf2JHE30M0)"><g><path d="M 837.642 98.08 L 1672.358 98.08 C 1720.177 98.08 1759 136.903 1759 184.722 L 1759 1267.278 C 1759 1315.097 1720.177 1353.92 1672.358 1353.92 L 837.642 1353.92 C 789.823 1353.92 751 1315.097 751 1267.278 L 751 184.722 C 751 136.903 789.823 98.08 837.642 98.08 Z" style="stroke:none;fill:#BFD1D9;stroke-miterlimit:10;"/><path d="M 851.855 164.08 L 1658.145 164.08 C 1678.486 164.08 1695 180.594 1695 200.935 L 1695 1251.065 C 1695 1271.406 1678.486 1287.92 1658.145 1287.92 L 851.855 1287.92 C 831.514 1287.92 815 1271.406 815 1251.065 L 815 200.935 C 815 180.594 831.514 164.08 851.855 164.08 Z" style="stroke:none;fill:#EBEBEB;stroke-miterlimit:10;"/><rect x="1084" y="16.08" width="342" height="164" transform="matrix(1,0,0,1,0,0)" fill="rgb(133,172,189)"/></g><path d="M 837.642 98.08 L 1672.358 98.08 C 1720.177 98.08 1759 136.903 1759 184.722 L 1759 1267.278 C 1759 1315.097 1720.177 1353.92 1672.358 1353.92 L 837.642 1353.92 C 789.823 1353.92 751 1315.097 751 1267.278 L 751 184.722 C 751 136.903 789.823 98.08 837.642 98.08 Z" style="stroke:none;fill:#BFD1D9;stroke-miterlimit:10;"/><path d="M 851.855 164.08 L 1658.145 164.08 C 1678.486 164.08 1695 180.594 1695 200.935 L 1695 1251.065 C 1695 1271.406 1678.486 1287.92 1658.145 1287.92 L 851.855 1287.92 C 831.514 1287.92 815 1271.406 815 1251.065 L 815 200.935 C 815 180.594 831.514 164.08 851.855 164.08 Z" style="stroke:none;fill:#EBEBEB;stroke-miterlimit:10;"/><rect x="1084" y="16.08" width="342" height="164" transform="matrix(1,0,0,1,0,0)" fill="rgb(133,172,189)"/><path d=" M 868.727 775.67 Q 913.274 774.17 1396.924 775.67" fill="none" vector-effect="non-scaling-stroke" stroke-width="47" stroke="rgb(83,83,83)" stroke-linejoin="miter" stroke-linecap="round" stroke-miterlimit="3"/><path d=" M 868.727 1003.67 Q 913.274 1002.17 1396.924 1003.67" fill="none" vector-effect="non-scaling-stroke" stroke-width="47" stroke="rgb(83,83,83)" stroke-linejoin="miter" stroke-linecap="round" stroke-miterlimit="3"/><path d=" M 1116.499 927.67 Q 1139.219 926.17 1385.9 927.67" fill="none" vector-effect="non-scaling-stroke" stroke-width="47" stroke="rgb(83,83,83)" stroke-linejoin="miter" stroke-linecap="round" stroke-miterlimit="3"/><path d=" M 868.727 927.67 Q 882.324 926.17 1029.944 927.67" fill="none" vector-effect="non-scaling-stroke" stroke-width="47" stroke="rgb(83,83,83)" stroke-linejoin="miter" stroke-linecap="round" stroke-miterlimit="3"/><path d=" M 868.727 851.67 Q 899.677 850.17 1235.707 851.67" fill="none" vector-effect="non-scaling-stroke" stroke-width="47" stroke="rgb(83,83,83)" stroke-linejoin="miter" stroke-linecap="round" stroke-miterlimit="3"/><path d=" M 870.849 1003.67 Q 915.395 1002.17 1399.045 1003.67" fill="none" vector-effect="non-scaling-stroke" stroke-width="47" stroke="rgb(83,83,83)" stroke-linejoin="miter" stroke-linecap="round" stroke-miterlimit="3"/><path d=" M 870.849 1231.67 Q 915.395 1230.17 1399.045 1231.67" fill="none" vector-effect="non-scaling-stroke" stroke-width="47" stroke="rgb(83,83,83)" stroke-linejoin="miter" stroke-linecap="round" stroke-miterlimit="3"/><path d=" M 1115.791 1155.67 Q 1138.512 1154.17 1385.193 1155.67" fill="none" vector-effect="non-scaling-stroke" stroke-width="47" stroke="rgb(83,83,83)" stroke-linejoin="miter" stroke-linecap="round" stroke-miterlimit="3"/><path d=" M 870.849 1155.67 Q 884.445 1154.17 1032.065 1155.67" fill="none" vector-effect="non-scaling-stroke" stroke-width="47" stroke="rgb(83,83,83)" stroke-linejoin="miter" stroke-linecap="round" stroke-miterlimit="3"/><path d=" M 870.849 1079.67 Q 901.799 1078.17 1237.829 1079.67" fill="none" vector-effect="non-scaling-stroke" stroke-width="47" stroke="rgb(83,83,83)" stroke-linejoin="miter" stroke-linecap="round" stroke-miterlimit="3"/><g><g><path d=" M 922.115 512.409 L 922.115 567.477 L 922.115 636.71" fill="rgb(109,107,242)" vector-effect="non-scaling-stroke" stroke-width="21.855" stroke="rgb(109,107,242)" stroke-linejoin="miter" stroke-linecap="square" stroke-miterlimit="3"/><ellipse vector-effect="non-scaling-stroke" cx="889.4689473096047" cy="646.8176178027925" rx="42.75396016092088" ry="29.231142090853268" fill="rgb(109,107,242)"/><line x1="1058.846" y1="486.593" x2="1058.846" y2="610.893" vector-effect="non-scaling-stroke" stroke-width="21.855" stroke="rgb(92,76,234)" stroke-linejoin="miter" stroke-linecap="square" stroke-miterlimit="3"/><ellipse vector-effect="non-scaling-stroke" cx="1026.199663351399" cy="621.5477052476158" rx="42.753960160920826" ry="29.231142090853268" fill="rgb(92,76,234)"/><path d=" M 990.78 475.959 L 1060.672 468.724 C 1065.171 468.258 1068.824 471.552 1068.824 476.076 L 1068.824 508.008 L 991.125 516.052 L 990.78 475.959 L 990.78 475.959 Z " fill="rgb(92,76,234)"/><path d=" M 990.78 475.959 L 1060.672 468.724 C 1065.171 468.258 1068.824 471.552 1068.824 476.076 L 1068.824 508.008 L 991.125 516.052 L 990.78 475.959 L 990.78 475.959 Z " fill="rgb(92,76,234)"/><path d=" M 991.326 475.959 L 918.895 483.457 C 914.396 483.923 910.743 487.973 910.743 492.497 L 910.743 524.429 L 991.672 516.052 L 991.326 475.959 L 991.326 475.959 Z " fill="rgb(109,107,242)"/></g></g><g><g><path d=" M 1154.751 556.872 L 1154.751 605.028 L 1154.751 665.57" fill="rgb(85,71,204)" vector-effect="non-scaling-stroke" stroke-width="19.112" stroke="rgb(85,71,204)" stroke-linejoin="miter" stroke-linecap="square" stroke-miterlimit="3"/><ellipse vector-effect="non-scaling-stroke" cx="1126.8759291404974" cy="674.3436748371839" rx="37.38729277686093" ry="25.561919023157316" fill="rgb(85,71,204)"/><path d=" M 1145.387 578.98 L 1210.197 586.997 C 1214.131 586.589 1217.325 583.047 1217.325 579.092 L 1217.325 551.167 L 1145.085 543.92 L 1145.387 578.98 L 1145.387 578.98 Z " fill="rgb(85,71,204)"/></g></g><path d=" M 1154.751 556.872 L 1154.751 605.028 L 1154.751 665.57" fill="rgb(85,71,204)" vector-effect="non-scaling-stroke" stroke-width="19.112" stroke="rgb(85,71,204)" stroke-linejoin="miter" stroke-linecap="square" stroke-miterlimit="3"/><ellipse vector-effect="non-scaling-stroke" cx="1126.8759291404974" cy="674.3436748371839" rx="37.38729277686093" ry="25.561919023157316" fill="rgb(85,71,204)"/><path d=" M 1145.387 578.98 L 1210.197 586.997 C 1214.131 586.589 1217.325 583.047 1217.325 579.092 L 1217.325 551.167 L 1145.085 543.92 L 1145.387 578.98 L 1145.387 578.98 Z " fill="rgb(85,71,204)"/><g><g><path d=" M 1619.798 498.317 L 1619.798 546.473 L 1619.798 607.015" fill="rgb(85,71,204)" vector-effect="non-scaling-stroke" stroke-width="19.112" stroke="rgb(85,71,204)" stroke-linejoin="miter" stroke-linecap="square" stroke-miterlimit="3"/><ellipse vector-effect="non-scaling-stroke" cx="1591.9234623727448" cy="615.7887376414526" rx="37.38729277686093" ry="25.561919023157316" fill="rgb(85,71,204)"/><path d=" M 1610.435 520.425 L 1675.244 528.442 C 1679.179 528.034 1682.373 524.492 1682.373 520.537 L 1682.373 492.613 L 1610.133 485.365 L 1610.435 520.425 L 1610.435 520.425 Z " fill="rgb(85,71,204)"/></g></g><g><g><path d=" M 1398.526 550.445 L 1398.526 605.513 L 1398.526 674.746" fill="rgb(109,107,242)" vector-effect="non-scaling-stroke" stroke-width="21.855" stroke="rgb(109,107,242)" stroke-linejoin="miter" stroke-linecap="square" stroke-miterlimit="3"/><ellipse vector-effect="non-scaling-stroke" cx="1365.8801169054882" cy="684.8535896979704" rx="42.75396016092077" ry="29.231142090853268" fill="rgb(109,107,242)"/><line x1="1535.257" y1="524.629" x2="1535.257" y2="648.929" vector-effect="non-scaling-stroke" stroke-width="21.855" stroke="rgb(92,76,234)" stroke-linejoin="miter" stroke-linecap="square" stroke-miterlimit="3"/><ellipse vector-effect="non-scaling-stroke" cx="1502.610832947283" cy="659.5836771427937" rx="42.75396016092077" ry="29.231142090853268" fill="rgb(92,76,234)"/><path d=" M 1467.191 513.995 L 1537.083 506.76 C 1541.582 506.294 1545.235 509.588 1545.235 514.112 L 1545.235 546.044 L 1467.537 554.088 L 1467.191 513.995 L 1467.191 513.995 Z " fill="rgb(92,76,234)"/><path d=" M 1467.191 513.995 L 1537.083 506.76 C 1541.582 506.294 1545.235 509.588 1545.235 514.112 L 1545.235 546.044 L 1467.537 554.088 L 1467.191 513.995 L 1467.191 513.995 Z " fill="rgb(92,76,234)"/><path d=" M 1467.737 513.995 L 1395.306 521.493 C 1390.807 521.959 1387.154 526.009 1387.154 530.533 L 1387.154 562.465 L 1468.083 554.088 L 1467.737 513.995 L 1467.737 513.995 Z " fill="rgb(109,107,242)"/></g></g><g><g><path d=" M 1285.613 500.59 L 1285.613 548.745 L 1285.613 609.287" fill="rgb(85,71,204)" vector-effect="non-scaling-stroke" stroke-width="19.753" stroke="rgb(85,71,204)" stroke-linejoin="miter" stroke-linecap="square" stroke-miterlimit="3"/><ellipse vector-effect="non-scaling-stroke" cx="1255.8367721056693" cy="618.0614649141797" rx="39.93696614614964" ry="25.561919023157316" fill="rgb(85,71,204)"/><path d=" M 1275.611 522.697 L 1344.84 530.714 C 1349.042 530.307 1352.455 526.765 1352.455 522.81 L 1352.455 494.885 L 1275.288 487.637 L 1275.611 522.697 L 1275.611 522.697 Z " fill="rgb(85,71,204)"/></g></g><rect x="1291.417" y="234.788" width="50.56" height="167.897" transform="matrix(1,0,0,1,0,0)" fill="rgb(83,83,83)"/><rect x="1364.211" y="234.788" width="50.56" height="167.897" transform="matrix(1,0,0,1,0,0)" fill="rgb(83,83,83)"/><polygon points="1098.438,405.363,1098.438,232.109,1248.48,318.736" fill="rgb(83,83,83)"/><rect x="982.352" y="234.788" width="50.56" height="167.897" transform="matrix(1,0,0,1,0,0)" fill="rgb(83,83,83)"/><polygon points="971.534,234.896,971.534,402.577,826.318,318.736" fill="rgb(83,83,83)"/><rect x="1472.72" y="234.788" width="50.56" height="167.897" transform="matrix(1,0,0,1,0,0)" fill="rgb(83,83,83)"/><polygon points="1536.29,405.363,1536.29,232.109,1686.333,318.736" fill="rgb(83,83,83)"/><path d=" M 1486.545 806.42 L 1468.364 826.874 L 1521.773 879.147 L 1619.5 755.283 L 1597.909 738.238 L 1516.091 843.92 L 1486.545 806.42 Z " fill="rgb(100,153,127)" vector-effect="non-scaling-stroke" stroke-width="12" stroke="rgb(100,153,127)" stroke-linejoin="miter" stroke-linecap="square" stroke-miterlimit="3"/><path d=" M 1489.386 1159.829 L 1471.205 1180.283 L 1524.614 1232.556 L 1622.341 1108.692 L 1600.75 1091.647 L 1518.932 1197.329 L 1489.386 1159.829 Z " fill="rgb(100,153,127)" vector-effect="non-scaling-stroke" stroke-width="12" stroke="rgb(100,153,127)" stroke-linejoin="miter" stroke-linecap="square" stroke-miterlimit="3"/><path d=" M 1483.136 917.783 L 1539.955 972.329 L 1591.875 912.67 L 1604.625 925.045 L 1552.875 983.92 L 1602.375 1028.545 L 1588.875 1040.92 L 1541.25 996.67 L 1490.557 1055.806 L 1476.375 1044.295 L 1526.25 985.42 L 1468.364 931.42 L 1483.136 917.783 Z " fill="rgb(189,112,112)" vector-effect="non-scaling-stroke" stroke-width="12" stroke="rgb(189,112,112)" stroke-linejoin="miter" stroke-linecap="square" stroke-miterlimit="3"/></g></svg>